<?xml version="1.0" encoding="UTF-8"?><svg id="a" xmlns="http://www.w3.org/2000/svg" viewBox="0 0 720.79 520.52"><defs>
<style>
.b{fill:none;stroke:#ffffff;stroke-linejoin:round;stroke-width:11px;stroke-miterlimit:10; stroke-dasharray: 4000; stroke-dashoffset: 4000; animation: dash 3s linear forwards;}

@keyframes dash {
		to {
			stroke-dashoffset: 0;
		}
	}

</style>
</defs>
<polygon class="b" points="5.5 515.02 35.42 453.68 52.04 344.61 71.99 300.31 48.72 245.78 55.37 184.43 155.11 92.41 288.09 89 352.92 70.26 422.73 5.5 565.69 66.85 602.26 131.6 638.83 240.66 715.29 254.3 635.19 260.26 638.83 458.79 608.91 492.87 598.93 475.83 612.23 441.75 575.66 353.13 571.61 260.26 495.87 203.17 492.55 250.89 449.33 230.44 449.33 308.83 505.85 417.89 505.85 472.42 548.81 515.02 462.44 515.02 459.3 462.2 449.33 424.71 422.73 404.26 396.14 479.24 410.86 515.02 329.29 515.02 352.92 482.65 352.92 353.13 266.48 359.95 190.01 356.54 176.72 394.03 199.99 469.01 234.52 515.02 138.55 515.02 146.79 479.24 116.87 397.44 90.28 411.07 76.98 475.83 86.97 515.02 5.5 515.02"/>
<polyline class="b" points="565.69 66.85 492.55 103.1 602.26 131.6 565.69 66.85 422.73 5.5 492.55 103.1 492.55 203.17 492.55 250.89 449.33 230.44 449.33 308.83 352.92 353.13 266.48 359.95 299.72 302.01 322.45 240.85 352.92 158.87 288.09 89 155.11 92.41 55.37 184.43 150.12 209.99 190.01 356.54 48.72 245.78 71.99 300.31 116.87 397.44 90.28 411.07 35.42 453.68 76.98 475.83"/>
<polyline class="b" points="48.72 245.78 150.12 209.99 155.11 92.41"/>
<polyline class="b" points="288.09 89 150.12 209.99 352.92 158.87 449.33 230.44 322.45 240.85 352.92 353.13 422.73 404.26 352.92 482.65"/>
<line class="b" x1="150.12" y1="209.99" x2="299.72" y2="302.01"/>
<line class="b" x1="352.92" y1="70.26" x2="352.92" y2="158.87"/>
<polyline class="b" points="602.26 131.6 492.55 203.17 638.83 240.66"/>
<polyline class="b" points="571.61 260.26 635.19 260.26 575.66 353.13 638.83 400.45 612.23 441.75 638.83 458.79"/>
<polyline class="b" points="449.33 424.71 505.85 417.89 459.3 462.2"/>
<line class="b" x1="505.85" y1="472.42" x2="462.44" y2="515.02"/>
<polyline class="b" points="176.72 394.03 146.79 479.24 199.99 469.01"/>
</svg>